<?xml version="1.0" encoding="UTF-8" standalone="no"?>
<!-- Created with Inkscape (http://www.inkscape.org/) -->

<svg
   xmlns:dc="http://purl.org/dc/elements/1.1/"
   xmlns:cc="http://creativecommons.org/ns#"
   xmlns:rdf="http://www.w3.org/1999/02/22-rdf-syntax-ns#"
   xmlns:svg="http://www.w3.org/2000/svg"
   xmlns="http://www.w3.org/2000/svg"
   version="1.1"
   viewBox="0 0 24 24"
   id="Layer_1"
   xml:space="preserve"><metadata
     id="metadata27"><rdf:RDF><cc:Work
         rdf:about=""><dc:format>image/svg+xml</dc:format><dc:type
           rdf:resource="http://purl.org/dc/dcmitype/StillImage" /><dc:title></dc:title></cc:Work></rdf:RDF></metadata><defs
     id="defs25" /><g
     transform="scale(0.13494898,0.13494822)"
     id="g3008"><circle
       cx="90.024002"
       cy="88.921997"
       r="36.306"
       transform="translate(-1.10101,0)"
       id="circle19"
       style="fill:#4e8ef7" /><path
       d="m 163.01399,27.317 c 0,-6.896 -5.592,-12.484 -12.486,-12.484 -3.129,0 -5.979,1.158 -8.171,3.06 C 127.46999,6.665 108.96099,0 88.92199,0 39.88999,0 -1.0015688e-5,39.891 -1.0015688e-5,88.923 c 0,49.031 39.891000015688,88.923 88.923000015688,88.923 49.032,0 88.922,-39.892 88.922,-88.923 0,-20.039 -6.665,-38.548 -17.892,-53.436 1.902,-2.19 3.061,-5.042 3.061,-8.17 z m -74.092,147.537 c -47.382,0 -85.932,-38.55 -85.932,-85.932 0,-47.382 38.55,-85.932 85.932,-85.932 19.266,0 37.069,6.374 51.417,17.123 -1.442,2.036 -2.297,4.518 -2.297,7.203 0,6.895 5.59,12.483 12.484,12.483 2.686,0 5.165,-0.855 7.202,-2.297 10.749,14.348 17.123,32.151 17.123,51.419 0.002,47.383 -38.546,85.933 -85.929,85.933 z"
       id="path21"
       style="fill:#4e8ef7" /></g></svg>